HIERARCHY
ROOT Hips
{
  OFFSET 64.5218 85.4725 9.03893
  CHANNELS 6 Xposition Yposition Zposition Zrotation Xrotation Yrotation
  JOINT spine
  {
    OFFSET 0 6.3926 0.367606
    CHANNELS 3 Zrotation Xrotation Yrotation
    JOINT spine1
    {
      OFFSET 0 9.17611 0
      CHANNELS 3 Zrotation Xrotation Yrotation
      JOINT spine2
      {
        OFFSET 0 8.79238 0
        CHANNELS 3 Zrotation Xrotation Yrotation
        JOINT Neck
        {
          OFFSET 0 22.5737 1.07624
          CHANNELS 3 Zrotation Xrotation Yrotation
          JOINT Head
          {
            OFFSET 0 6.82011 0
            CHANNELS 3 Zrotation Xrotation Yrotation
            End Site
            {
              OFFSET 0 16.5085 -5.44427
            }
          }
        }
        JOINT RightShoulder
        {
          OFFSET -3.70221 9.49509 -0.515508
          CHANNELS 3 Zrotation Xrotation Yrotation
          JOINT RightArm
          {
            OFFSET 0 12.4537 0
            CHANNELS 3 Zrotation Xrotation Yrotation
            JOINT RightArmRoll
            {
              OFFSET 0 6.28686 0
              CHANNELS 3 Zrotation Xrotation Yrotation
              JOINT RightForeArm
              {
                OFFSET 0 18.3114 0
                CHANNELS 3 Zrotation Xrotation Yrotation
                JOINT RightForeArmRoll
                {
                  OFFSET 0 7.05482 0
                  CHANNELS 3 Zrotation Xrotation Yrotation
                  JOINT RightHand
                  {
                    OFFSET 0 14.1575 0
                    CHANNELS 3 Zrotation Xrotation Yrotation
                    End Site
                    {
                      OFFSET 0 0 0
                    }
                  }
                }
              }
            }
          }
        }
        JOINT LeftShoulder
        {
          OFFSET 3.70221 9.49509 -0.515508
          CHANNELS 3 Zrotation Xrotation Yrotation
          JOINT LeftArm
          {
            OFFSET 0 12.4537 0
            CHANNELS 3 Zrotation Xrotation Yrotation
            JOINT LeftArmRoll
            {
              OFFSET 0 6.28686 0
              CHANNELS 3 Zrotation Xrotation Yrotation
              JOINT LeftForeArm
              {
                OFFSET 0 18.3114 0
                CHANNELS 3 Zrotation Xrotation Yrotation
                JOINT LeftForeArmRoll
                {
                  OFFSET 0 7.05482 0
                  CHANNELS 3 Zrotation Xrotation Yrotation
                  JOINT LeftHand
                  {
                    OFFSET 0 14.1575 0
                    CHANNELS 3 Zrotation Xrotation Yrotation
                    End Site
                    {
                      OFFSET 0 0 0
                    }
                  }
                }
              }
            }
          }
        }
      }
    }
  }
  JOINT RightUpLeg
  {
    OFFSET -5.66616 -1.03903 -0.87161
    CHANNELS 3 Zrotation Xrotation Yrotation
    JOINT RightUpLegRoll
    {
      OFFSET 0 16.6005 0
      CHANNELS 3 Zrotation Xrotation Yrotation
      JOINT RightLeg
      {
        OFFSET 0 -20.5572 0
        CHANNELS 3 Zrotation Xrotation Yrotation
        JOINT RightLegRoll
        {
          OFFSET 0 20.6244 0
          CHANNELS 3 Zrotation Xrotation Yrotation
          JOINT RightFoot
          {
            OFFSET 0 17.1664 0
            CHANNELS 3 Zrotation Xrotation Yrotation
            JOINT RightToeBase
            {
              OFFSET 0 14.3502 0
              CHANNELS 3 Zrotation Xrotation Yrotation
              End Site
              {
                OFFSET 0.00608252 6.94971 -0.80106
              }
            }
          }
        }
      }
    }
  }
  JOINT LeftUpLeg
  {
    OFFSET 5.66616 -1.03903 -0.87161
    CHANNELS 3 Zrotation Xrotation Yrotation
    JOINT LeftUpLegRoll
    {
      OFFSET 0 16.6006 0
      CHANNELS 3 Zrotation Xrotation Yrotation
      JOINT LeftLeg
      {
        OFFSET 0 20.5571 0
        CHANNELS 3 Zrotation Xrotation Yrotation
        JOINT LeftLegRoll
        {
          OFFSET 0 20.8151 0
          CHANNELS 3 Zrotation Xrotation Yrotation
          JOINT LeftFoot
          {
            OFFSET 0 16.9757 0
            CHANNELS 3 Zrotation Xrotation Yrotation
            JOINT LeftToeBase
            {
              OFFSET 0 14.3502 0
              CHANNELS 3 Zrotation Xrotation Yrotation
              End Site
              {
                OFFSET -0.0272592 6.9497 -0.801061
              }
            }
          }
        }
      }
    }
  }
}
MOTION
Frames: 10
Frame Time: 0.00208333
44.0156 85.4319 14.1816 1.5972 -1.21975 11.6743 0.268821 -0.328076 -0.218264 0.539257 3.34555 -0.462958 0.545534 4.99055 -0.472461 2.82171 10.3459 15.0324 -13.8641 -2.98699 14.394 48.2151 1.33178 2.45234 104.526 14.7331 -36.7639 1.69657e-006 -2.42126e-007 -3.55211e-006 -72.1782 86.7753 65.678 -1.6755e-006 -4.01396e-006 -3 8.02886 -4.95144 0.697684 -48.5773 4.39697 -4.65808 -112.64 22.6735 44.0734 -2.74211e-006 1.99354e-008 2.83193e-006 -32.1268 86.459 38.2878 2.26359e-006 -2.28516e-006 3.00021 -8.02886 -4.95146 -0.697686 177.789 2.58776 0.639787 -180 7.01537e-015 178.882 175.253 9.98587 179.99 3.9617e-006 7.92054e-006 0.197334 -21.4965 69.1989 20.6689 8.13275 25.2329 -3.47935 -169.81 4.32949 -2.29266 4.54188e-006 -4.6773e-006 -1.28033 -0.0894526 -8.31296 0.464663 -2.80947e-006 -6.37821e-006 0.0752738 16.9508 65.3153 -17.5361 -8.13556 25.2209 3.50235 
43.996 85.4283 14.1703 1.59161 -1.23452 11.7374 0.266143 -0.326983 -0.220863 0.53388 3.34774 -0.468351 0.540216 4.99274 -0.47777 2.96045 10.4112 15.0848 -14.0129 -3.02448 14.4686 48.1733 1.26566 2.40967 104.277 14.8048 -36.6887 1.69657e-006 -2.42126e-007 -3.55211e-006 -72.6527 86.7708 66.1356 -1.6755e-006 -4.01396e-006 -3 8.02886 -4.95144 0.697684 -48.3977 4.44005 -4.7264 -112.602 22.8464 44.0075 -2.74211e-006 1.99354e-008 2.83193e-006 -31.913 86.3994 38.0366 2.26359e-006 -2.28516e-006 3.00021 -8.02886 -4.95146 -0.697686 177.822 2.56115 0.615481 -180 7.01537e-015 178.881 175.271 9.97078 179.987 3.9617e-006 7.92054e-006 0.197572 -21.5009 69.1967 20.6655 8.13275 25.2329 -3.47935 -169.76 4.34205 -2.35315 4.54188e-006 -4.6773e-006 -1.28232 -0.110164 -8.46483 0.466756 -2.80947e-006 -6.37821e-006 0.0708402 16.9557 65.3233 -17.5416 -8.13532 25.2173 3.50689 
43.9954 85.4317 14.1764 1.58569 -1.24937 11.7989 0.263602 -0.326046 -0.223533 0.528781 3.34961 -0.473987 0.535178 4.99462 -0.483326 3.09716 10.4781 15.1382 -14.1606 -3.06324 14.5436 48.1279 1.20045 2.36824 104.026 14.8762 -36.6138 1.69657e-006 -2.42126e-007 -3.55211e-006 -73.1532 86.7656 66.6181 -1.6755e-006 -4.01396e-006 -3 8.02886 -4.95144 0.697684 -48.2181 4.47797 -4.79134 -112.566 23.0181 43.9411 -2.74211e-006 1.99354e-008 2.83193e-006 -31.6984 86.3381 37.7837 2.26359e-006 -2.28516e-006 3.00021 -8.02886 -4.95146 -0.697686 177.854 2.53314 0.590724 -180 7.01537e-015 178.88 175.29 9.95296 179.985 3.9617e-006 7.92054e-006 0.197754 -21.5036 69.1934 20.6608 8.13275 25.2329 -3.47935 -169.709 4.35544 -2.41569 4.54188e-006 -4.6773e-006 -1.28421 -0.132431 -8.62361 0.468915 -2.80947e-006 -6.37821e-006 0.0660247 16.9623 65.3342 -17.5491 -8.13509 25.2138 3.51121 
43.9769 85.4319 14.1712 1.57947 -1.26412 11.859 0.261181 -0.325295 -0.226249 0.523927 3.35111 -0.479789 0.530387 4.99611 -0.489054 3.23181 10.5459 15.1924 -14.3068 -3.10242 14.619 48.0788 1.13551 2.32752 103.773 14.9474 -36.5389 1.69657e-006 -2.42126e-007 -3.55211e-006 -73.6775 86.76 67.1237 -1.6755e-006 -4.01396e-006 -3 8.02886 -4.95144 0.697684 -48.0385 4.51114 -4.85313 -112.53 23.188 43.8735 -2.74211e-006 1.99354e-008 2.83193e-006 -31.4809 86.2746 37.527 2.26359e-006 -2.28516e-006 3.00021 -8.02886 -4.95146 -0.697686 177.887 2.50387 0.565662 -180 7.01537e-015 178.879 175.31 9.93251 179.982 3.9617e-006 7.92054e-006 0.197886 -21.5051 69.189 20.655 8.13275 25.2329 -3.47935 -169.656 4.36948 -2.48001 4.54188e-006 -4.6773e-006 -1.28601 -0.156185 -8.78786 0.471085 -2.80947e-006 -6.37821e-006 0.0608918 16.9705 65.3476 -17.5583 -8.13489 25.2108 3.515 
43.9809 85.4332 14.1428 1.573 -1.27862 11.9179 0.258864 -0.324764 -0.228984 0.519282 3.35217 -0.485685 0.525808 4.99718 -0.494878 3.36436 10.6142 15.2472 -14.4511 -3.14118 14.6949 48.0263 1.07021 2.28694 103.52 15.0186 -36.4636 1.69657e-006 -2.42126e-007 -3.55211e-006 -74.2233 86.754 67.65 -1.6755e-006 -4.01396e-006 -3 8.02886 -4.95144 0.697684 -47.8589 4.54001 -4.912 -112.496 23.3553 43.8041 -2.74211e-006 1.99354e-008 2.83193e-006 -31.2585 86.2089 37.2644 2.26359e-006 -2.28516e-006 3.00021 -8.02886 -4.95146 -0.697686 177.92 2.4735 0.54044 -180 7.01537e-015 178.879 175.33 9.90948 179.979 3.9617e-006 7.92054e-006 0.197977 -21.5055 69.1835 20.648 8.13275 25.2329 -3.47935 -169.603 4.38394 -2.5458 4.54188e-006 -4.6773e-006 -1.2877 -0.181356 -8.95613 0.473212 -2.80947e-006 -6.37821e-006 0.0555058 16.9799 65.3631 -17.5688 -8.13473 25.2084 3.51793 
43.9712 85.4218 14.1442 1.56634 -1.29272 11.9758 0.256631 -0.324484 -0.231713 0.514815 3.35273 -0.491599 0.521406 4.99773 -0.500725 3.49481 10.6823 15.3025 -14.593 -3.17866 14.7711 47.9706 1.00391 2.24598 103.266 15.0898 -36.3877 1.69657e-006 -2.42126e-007 -3.55211e-006 -74.7885 86.7477 68.1952 -1.6755e-006 -4.01396e-006 -3 8.02886 -4.95144 0.697684 -47.6794 4.56501 -4.96821 -112.462 23.5193 43.7324 -2.74211e-006 1.99354e-008 2.83193e-006 -31.0295 86.1407 36.9942 2.26359e-006 -2.28516e-006 3.00021 -8.02886 -4.95146 -0.697686 177.952 2.44217 0.515206 -180 7.01536e-015 178.878 175.35 9.88393 179.976 3.9617e-006 7.92054e-006 0.198032 -21.5052 69.1769 20.6401 8.13275 25.2329 -3.47935 -169.55 4.39864 -2.61279 4.54188e-006 -4.6773e-006 -1.28931 -0.207876 -9.12696 0.475239 -2.80947e-006 -6.37821e-006 0.0499311 16.9902 65.3801 -17.5804 -8.13464 25.207 3.51969 
43.9716 85.4266 14.1342 1.55953 -1.30624 12.0326 0.254467 -0.324487 -0.23441 0.510491 3.35272 -0.497458 0.517147 4.99773 -0.506518 3.62311 10.7496 15.3582 -14.7322 -3.21404 14.8477 47.9118 0.935978 2.20407 103.013 15.1611 -36.3108 1.69657e-006 -2.42126e-007 -3.55211e-006 -75.3711 86.7413 68.7573 -1.6755e-006 -4.01396e-006 -3 8.02886 -4.95144 0.697684 -47.4998 4.58658 -5.02197 -112.43 23.6792 43.6576 -2.74211e-006 1.99354e-008 2.83193e-006 -30.7924 86.0699 36.7148 2.26359e-006 -2.28516e-006 3.00021 -8.02886 -4.95146 -0.697686 177.985 2.41002 0.490105 -180 7.01536e-015 178.877 175.37 9.85594 179.973 3.9617e-006 7.92054e-006 0.198059 -21.5044 69.1694 20.6314 8.13275 25.2329 -3.47935 -169.496 4.41335 -2.68066 4.54188e-006 -4.6773e-006 -1.29081 -0.235678 -9.2989 0.477111 -2.80947e-006 -6.37821e-006 0.0442321 17.0012 65.3983 -17.5929 -8.13462 25.2068 3.51996 
43.9565 85.4248 14.1281 1.55261 -1.31904 12.0888 0.252353 -0.324806 -0.23705 0.506276 3.35208 -0.503187 0.512996 4.99709 -0.512182 3.74926 10.8157 15.4142 -14.8682 -3.24645 14.9247 47.8502 0.865772 2.16069 102.759 15.2326 -36.2327 1.69657e-006 -2.42126e-007 -3.55211e-006 -75.9691 86.735 69.3345 -1.6755e-006 -4.01396e-006 -3 8.02886 -4.95144 0.697684 -47.3203 4.60515 -5.07354 -112.4 23.8342 43.5792 -2.74211e-006 1.99354e-008 2.83193e-006 -30.5462 85.9962 36.4251 2.26359e-006 -2.28516e-006 3.00021 -8.02886 -4.95146 -0.697686 178.017 2.37721 0.465284 -180 7.01536e-015 178.876 175.39 9.82556 179.97 3.9617e-006 7.92054e-006 0.198066 -21.5034 69.1609 20.6219 8.13275 25.2329 -3.47935 -169.443 4.42788 -2.74913 4.54188e-006 -4.6773e-006 -1.29222 -0.264696 -9.4705 0.478774 -2.80947e-006 -6.37821e-006 0.0384732 17.0127 65.4173 -17.6057 -8.13471 25.208 3.51841 
43.9581 85.4243 14.1264 1.54565 -1.33096 12.1443 0.250271 -0.325474 -0.239605 0.502137 3.35074 -0.508713 0.508918 4.99575 -0.517644 3.87325 10.8799 15.4702 -15.0006 -3.27507 15.0021 47.7859 0.792659 2.11527 102.507 15.3043 -36.153 1.69657e-006 -2.42126e-007 -3.55211e-006 -76.5805 86.7289 69.9251 -1.6755e-006 -4.01396e-006 -3 8.02886 -4.95144 0.697684 -47.1408 4.62115 -5.12315 -112.371 23.9837 43.4965 -2.74211e-006 1.99354e-008 2.83193e-006 -30.2894 85.9195 36.1236 2.26359e-006 -2.28516e-006 3.00021 -8.02886 -4.95146 -0.697686 178.048 2.34388 0.440888 -180 7.01536e-015 178.876 175.409 9.79288 179.967 3.9617e-006 7.92054e-006 0.19806 -21.5024 69.1515 20.6118 8.13275 25.2329 -3.47935 -169.389 4.44203 -2.81791 4.54188e-006 -4.6773e-006 -1.29353 -0.294863 -9.64032 0.48017 -2.80947e-006 -6.37821e-006 0.0327187 17.0243 65.4366 -17.6188 -8.1349 25.211 3.51473 
43.9505 85.4196 14.1174 1.53867 -1.34183 12.1993 0.248205 -0.326521 -0.242052 0.498041 3.34864 -0.513959 0.504879 4.99365 -0.522827 3.99505 10.9416 15.5262 -15.1289 -3.29904 15.0799 47.7191 0.716001 2.06728 102.256 15.3764 -36.0714 1.69657e-006 -2.42126e-007 -3.55211e-006 -77.204 86.7231 70.5277 -1.6755e-006 -4.01396e-006 -3 8.02886 -4.95144 0.697684 -46.9614 4.63502 -5.17103 -112.344 24.1268 43.4088 -2.74211e-006 1.99354e-008 2.83193e-006 -30.0214 85.8396 35.8096 2.26359e-006 -2.28516e-006 3.00021 -8.02886 -4.95146 -0.697686 178.079 2.31018 0.417064 -180 7.01536e-015 178.875 175.428 9.75793 179.964 3.9617e-006 7.92054e-006 0.198048 -21.5018 69.1412 20.6011 8.13275 25.2329 -3.47935 -169.336 4.45558 -2.88671 4.54188e-006 -4.6773e-006 -1.29474 -0.326116 -9.80689 0.481243 -2.80947e-006 -6.37821e-006 0.027033 17.0359 65.4557 -17.6318 -8.13523 25.2159 3.50859 
